<?xml version="1.0" encoding="utf-8"?>
<!-- Generator: Adobe Illustrator 19.0.0, SVG Export Plug-In . SVG Version: 6.00 Build 0)  -->
<svg version="1.1" id="Layer_1" xmlns="http://www.w3.org/2000/svg" xmlns:xlink="http://www.w3.org/1999/xlink" x="0px" y="0px"
	 viewBox="-272 395.9 50 50" style="enable-background:new -272 395.9 50 50;" xml:space="preserve">
<style type="text/css">
	.st0{fill:#1185fe;}
</style>
<path class="st0" d="M-229.7,418.7c-0.2,0.2-0.6,0.2-0.9,0l-8.6-6.6l-4.1,24.4c0,0.1,0,0.2-0.1,0.3c-0.8,3.5-5.3,6.1-10.5,6.1
	c-5.9,0-10.7-3.3-10.7-7.3c0-4,4.8-7.3,10.7-7.3c2.4,0,4.7,0.5,6.6,1.5l5.4-30.7c0-0.3,0.3-0.5,0.5-0.6c0.3,0,0.6,0.1,0.7,0.3
	l11.1,18.8C-229.4,418.2-229.4,418.5-229.7,418.7z"/>
</svg>
